<svg width="71" height="71" viewBox="0 0 71 71" fill="none" xmlns="http://www.w3.org/2000/svg">
<path fill-rule="evenodd" clip-rule="evenodd" d="M5.92332 9.85214C7.06654 7.44816 9.49096 5.9165 12.1529 5.9165H54.4751C56.7044 5.9165 58.7963 6.99386 60.0909 8.80874L63.2124 13.1847C65.1624 15.9184 63.2082 19.7128 59.8503 19.7128C59.3835 19.7128 58.9863 20.0531 58.9148 20.5145L52.8654 59.5245C52.1053 64.4259 47.8858 68.0415 42.9259 68.0415H24.7295C19.624 68.0415 15.3283 64.2165 14.7385 59.1452L10.3657 21.5468C10.2441 20.5013 9.35856 19.7128 8.30609 19.7128C5.02319 19.7128 2.86134 16.2909 4.27123 13.3262L5.92332 9.85214ZM12.1529 11.8332C11.7742 11.8332 11.4292 12.0511 11.2666 12.3931L10.4594 14.0904C13.515 14.9446 15.8602 17.5739 16.2427 20.8632L20.6156 58.4616C20.8584 60.5498 22.6272 62.1248 24.7295 62.1248H42.9259C44.9682 62.1248 46.7057 60.636 47.0186 58.6178L53.068 19.6078C53.4237 17.3143 54.8895 15.4333 56.867 14.4777L55.2741 12.2447C55.0899 11.9865 54.7923 11.8332 54.4751 11.8332H12.1529Z" fill="#1D4D4F"/>
<path fill-rule="evenodd" clip-rule="evenodd" d="M34.0209 41.4167C36.4717 41.4167 38.4584 39.4299 38.4584 36.9792C38.4584 34.5284 36.4717 32.5417 34.0209 32.5417C31.5702 32.5417 29.5834 34.5284 29.5834 36.9792C29.5834 39.4299 31.5702 41.4167 34.0209 41.4167ZM34.0209 47.3333C39.7394 47.3333 44.3751 42.6976 44.3751 36.9792C44.3751 31.2607 39.7394 26.625 34.0209 26.625C28.3025 26.625 23.6667 31.2607 23.6667 36.9792C23.6667 42.6976 28.3025 47.3333 34.0209 47.3333Z" fill="#1D4D4F"/>
</svg>
