<svg width="390" height="208" viewBox="0 0 390 208" fill="none" xmlns="http://www.w3.org/2000/svg">
<g filter="url(#filter0_d_320_986)">
<rect x="18" y="23" width="354" height="142" rx="19.6211" fill="#4AA366"/>
<mask id="mask0_320_986" style="mask-type:alpha" maskUnits="userSpaceOnUse" x="18" y="23" width="354" height="142">
<rect x="18" y="23" width="354" height="142" rx="20" fill="#4AA366"/>
</mask>
<g mask="url(#mask0_320_986)">
<path opacity="0.2" d="M69.2034 42.9472C73.8965 45.6698 78.8747 49.1736 82.6644 52.8867L81.1756 54.3924C73.6975 53.5922 65.8215 54.5908 58.7325 54.7009C57.942 53.898 56.3492 52.691 57.8326 51.6824L69.2034 42.9472ZM201.43 136.44C201.53 139.837 201.847 142.755 200.53 146.232C186.868 150.142 177.894 135.584 164.639 137.78L166.137 145.326C178.401 145.732 186.061 157.568 198.73 157.059C196.931 160.677 199.533 170.21 191.559 166.399C183.281 164.398 177.297 157.059 168.226 157.059C167.131 159.082 167.824 161.882 167.632 164.274C177.201 165.785 184.083 173.925 193.65 175.428C192.75 178.737 191.858 182.442 189.164 184.46C181.381 182.554 175.302 175.519 167.017 175.72L165.541 182.649C173.415 182.853 178.503 189.865 185.579 191.969C185.774 194.892 183.178 197.504 181.683 200.113C175.401 198.214 170.61 192.782 163.432 193.183C163.333 190.461 164.938 187.37 164.332 184.46C156.271 186.873 150.865 179.334 144.89 174.812C144.718 160.012 129.238 150.304 128.421 136.44C128.264 133.676 128.683 130.725 129.934 127.554C135.021 115.715 133.423 100.344 127.845 89.3053C126.15 86.4005 123.146 84.1073 120.347 82.3996C124.442 91.1348 129.433 101.456 126.942 112.193C126.653 120.484 121.793 128.447 121.737 136.44C121.718 139.29 122.322 142.14 123.951 145.017C130.437 156.774 142.105 167.902 137.718 182.647C136.511 187.175 132.919 190.677 132.022 195.286C139.61 201.611 146.784 208.738 156.851 209.139C160.438 206.833 158.446 196.608 165.825 201.324L176.6 206.749C175.815 209.652 173.4 212.253 171.213 214.252C167.125 212.25 163.137 209.849 158.04 210.045C156.537 211.65 155.243 213.451 155.358 215.754C158.945 216.349 162.236 217.873 165.232 219.984C163.841 222.999 161.13 224.889 158.637 227.199L150.279 224.191C148.883 226.201 145.984 228.313 147.002 230.519C148.888 231.331 150.98 232.43 152.368 233.838C148.679 237.852 144.003 240.434 139.503 243.158C135.627 230.408 122.857 221.469 123.954 206.725L123.36 206.129C120.358 209.525 121.361 214.957 121.555 219.365C125.147 228.6 133.716 235.733 135.016 245.86C133.516 248.466 130.133 248.986 127.538 250.089C127.839 231.83 100.321 217.982 117.968 199.513C123.853 190.469 133.714 181.838 130.22 169.387C126.633 157.366 113.945 149.917 114.057 136.44L114.077 135.389C116.967 121.335 125.745 106.381 118.564 91.4298C116.562 85.4162 112.091 78.5827 106.008 76.0694C115.076 86.5159 118.672 103.561 113.484 117.617C110.869 123.209 107.269 129.87 106.908 136.443H106.887C106.694 139.875 107.39 143.289 109.591 146.526C116.476 157.77 128.435 170.121 121.556 184.774C113.779 196.51 100.219 208.449 107.792 223.908C113.276 233.14 121.758 242.353 119.47 253.702L110.496 256.71C116.479 235.541 87.1603 223.102 99.4337 201.926C107.011 190.586 120.564 179.947 112.892 164.897C108.306 155.571 98.8287 150.052 99.1281 138.399L99.4543 136.442C102.542 119.914 115.025 104.27 106.297 86.6079C104.003 81.3928 99.4194 76.0757 94.3318 73.0626L94.0244 73.3721C104.2 83.3071 107.296 99.6535 101.81 112.794C99.25 120.503 93.6318 128.183 92.4899 136.445C91.9467 140.34 92.4047 144.377 94.6411 148.63C101.121 158.958 112.486 169.914 105.394 183.267C97.9261 194.297 85.4582 205.028 90.4382 219.371C95.9237 231.919 107.378 243.873 101.193 259.433L91.9333 261.538C99.3091 246.374 88.2494 231.328 81.7707 218.177C73.8894 199.309 98.7041 190.274 99.1021 173.024C99.008 161.89 87.2473 155.568 84.7618 145.332C79.6715 141.01 74.3958 147.051 68.3106 145.93C63.8183 146.838 56.9183 139.706 54.2365 147.437C51.0429 158.771 36.4938 167.104 42.8882 180.547C48.9724 192.494 63.6148 201.23 58.7235 216.691C54.3441 231.132 39.8774 244.882 48.8496 261.538C45.164 260.336 38.2811 262.637 38.3806 256.711C32.6997 236.54 56.9255 224.789 49.443 204.629C45.9608 192.281 30.0949 185.459 33.5879 170.608C36.1702 158.382 49.8006 149.836 47.8888 136.444C47.7337 135.322 47.4594 134.175 47.0677 132.979C41.9802 118.528 31.6008 104.073 37.7872 87.207C39.4857 82.3896 42.8783 78.276 45.8595 73.9702C35.9874 79.2873 31.0074 90.5304 31.2118 101.968C30.7815 114.407 39.9106 125.062 41.2094 136.444C41.7203 141.037 40.9727 145.741 37.7872 150.731C31.3113 159.575 22.8419 168.9 26.7248 180.546C30.4167 192.292 44.973 199.408 44.0758 213.062C43.9772 229.212 25.331 239.268 30.6157 257.33L21.3352 254.3C17.6504 238.25 34.5981 230.038 34.7926 215.187C37.1911 198.109 15.5494 191.772 16.8482 175.125C16.7549 162.476 27.8174 154.465 32.7033 143.826C33.5413 141.237 33.8201 138.79 33.708 136.445C33.1093 124.681 22.5775 115.484 24.3253 102.258C24.9133 92.524 28.2037 83.9918 34.4878 76.6711C25.8177 80.1767 22.236 90.2218 19.841 98.653C15.6847 112.172 25.6061 124.333 26.6011 136.446C27.0421 141.794 25.7433 147.112 20.7427 152.549C13.5596 161.069 6.27512 171.819 11.4613 183.269C16.953 195.903 34.2064 205.737 26.723 221.496C22.6402 231.432 12.864 238.954 13.2656 250.692C10.6752 249.587 7.988 248.487 5.78662 246.485C5.78662 231.535 26.9166 222.197 16.8491 206.442C15.9572 209.551 15.7654 213.775 15.0672 217.287C11.5733 226.424 4.09795 233.737 1.30052 243.182C-3.3774 241.366 -8.26864 237.548 -12.1596 233.534L-6.76998 230.214C-7.36873 228.204 -8.9615 226.5 -10.3544 224.794C-13.8545 224.298 -16.1527 226.61 -19.038 227.515C-21.5307 225.303 -23.9364 223.295 -25.9235 220.586C-24.1345 215.458 -10.1554 219.698 -17.2373 211.266C-22.0183 208.258 -26.8172 212.556 -31.0039 214.562L-36.6794 207.347C-31.7936 204.339 -26.9203 200.114 -20.8432 201.326C-19.3454 204.04 -19.2414 208.032 -16.3562 209.45C-6.0843 209.248 1.19386 201.429 9.06807 195.305C3.57987 187.086 -0.887405 175.739 3.9877 165.8C7.89389 155.839 18.0716 147.45 18.5333 136.439C18.6372 133.933 18.2491 131.296 17.1601 128.458C11.7786 114.507 9.87924 95.6517 20.1511 83.3035C14.5661 84.8136 11.273 91.8195 9.37551 97.1393C3.20073 110.762 11.0104 123.383 11.2802 136.438C11.3169 138.787 11.1278 141.14 10.5622 143.511C5.27572 154.248 -3.28955 163.669 -4.68065 176.024C-10.7649 179.93 -15.7601 186.761 -24.4294 184.456C-24.7341 186.762 -24.0359 190.277 -23.2408 192.888C-30.1157 192.598 -34.8034 197.698 -40.5919 200.106C-43.6752 199.11 -44.4775 195.099 -45.6714 192.291C-38.896 189.988 -34.0084 183.152 -26.2292 183.26C-25.3275 180.739 -26.7347 178.428 -27.1318 176.022C-36.8085 171.699 -52.1473 197.392 -53.4371 175.117C-43.7676 174.514 -37.5883 165.48 -28.012 164.58L-27.726 157.365C-38.594 156.26 -45.5853 167.505 -56.4488 166.396L-58.8446 156.768C-46.2782 157.558 -38.7912 146.224 -26.8234 145.614C-25.2334 143.509 -25.0416 140.398 -24.735 137.49C-37.798 135.777 -46.7622 150.347 -60.6265 145.922C-60.6265 145.922 -61.1043 139.858 -61.3633 136.439H-61.3445C-61.4386 135.102 -61.5282 134.17 -61.5282 134.17C-49.1652 138.999 -38.3027 130.061 -27.726 125.448C-25.0362 124.638 -20.8414 126.042 -19.6349 123.035C-19.7398 120.726 -15.5567 118.027 -19.0389 116.416C-34.5014 114.304 -44.7732 133.074 -60.6283 124.539L-61.8177 122.126C-58.5193 76.7721 -33.1049 32.9237 9.06807 11.346C26.1484 1.52188 47.368 -3.48578 68.7678 -3.6635C94.5936 -3.87911 120.689 2.93911 140.102 16.7695C158.953 28.4077 176.985 47.5877 186.772 67.0581C196.131 84.1172 200.439 103.259 201.725 123.638C185.369 136.077 174.396 111.92 157.741 117.326C158.638 119.94 159.134 122.645 161.038 124.852C175.8 124.748 185.965 140.304 201.417 134.173L201.43 136.44ZM13.5497 80.5827C3.17832 73.7564 -9.97076 80.184 -19.6367 83.9016C-20.5339 74.7649 -24.2205 66.4411 -31.9074 60.4203C-32.6531 60.0469 -33.6839 59.2611 -34.6125 59.2034C-35.1682 59.1682 -35.6971 59.3937 -36.1076 60.1091C-32.6236 81.6815 -46.5569 96.7342 -56.4308 113.099C-53.1431 115.803 -47.8611 115.399 -43.8733 114.604C-33.4061 110.391 -23.4353 103.059 -10.972 105.572C-7.28627 99.2502 -1.09356 93.1267 3.98412 88.1091C7.0863 85.4072 11.3483 83.6914 13.5497 80.5827ZM45.2634 94.1307C45.0645 95.4298 45.3629 97.7455 47.3528 96.8506C50.4487 92.5358 55.9297 95.9494 59.3178 96.2534V95.0391C57.4588 92.1009 53.6342 90.6251 49.7504 90.7721C48.8541 90.8037 47.9435 90.9354 47.0668 91.1402C45.7672 91.4307 44.8628 92.6278 45.2634 94.1307ZM94.0199 81.2024C91.2359 74.9787 84.8541 72.46 79.0629 70.9553C76.2243 70.6035 73.2781 70.3653 70.3561 70.3373C69.8084 70.3319 69.2616 70.3247 68.7167 70.3373C60.5431 70.5033 52.7334 72.6152 47.9623 79.3865C47.2775 81.2981 44.2667 83.9828 47.0624 85.6959C53.3447 85.2918 60.5135 84.4988 64.7011 89.925C64.7011 94.7469 67.7944 101.162 62.6118 103.47C58.3175 99.4686 53.2318 105.174 48.5592 101.962C46.3623 100.656 44.9721 102.18 44.0722 104.087C42.7735 116.528 49.2458 130.258 60.8102 137.18C65.4971 138.881 71.7973 140.5 76.6886 138.086C88.4537 132.572 93.327 119.935 95.5177 108.292C95.2237 106.077 95.3285 101.759 92.2398 101.654C88.7522 103.875 83.6656 102.563 79.9691 101.654C77.7839 102.364 77.6835 105.582 75.1962 106.192L73.6805 104.975C72.3826 99.464 71.5822 91.6337 76.6724 87.8204C82.3605 85.5119 89.0408 84.5033 94.9234 86.3148C96.0214 84.4095 94.3265 82.9093 94.0199 81.2024ZM88.0172 91.0978C87.6219 91.1077 87.2374 91.1276 86.8484 91.1402C84.7591 92.543 78.6704 91.5344 80.8681 96.2534C84.6596 93.2349 89.9443 95.3504 93.7331 96.8506C95.134 96.1506 94.8302 94.7451 94.9225 93.5335C93.7062 91.2557 90.7994 91.0419 88.0172 91.0978ZM131.43 48.6675C124.049 48.2733 117.869 52.4898 111.088 54.3978C110.497 48.5899 114.881 42.4564 115.881 36.626C104.917 37.336 96.232 43.9783 87.1612 49.2846C85.062 44.1795 82.9566 39.0482 80.8717 33.9242L92.8368 22.4808L93.1433 20.9734L76.9817 20.0676C74.1977 15.1583 73.1006 9.24492 69.8102 4.72891C67.1176 9.84664 65.3088 15.263 62.619 20.3762L46.4762 21.2846V22.4808L58.728 33.6148C57.2303 39.3378 55.8383 45.5561 52.1526 49.8818C44.9739 45.5543 37.8975 40.8443 30.0268 37.8394C28.1329 37.2241 25.4332 36.2237 23.7382 37.5309C26.2273 43.0518 29.7131 48.9905 29.1269 55.0166C25.8347 54.4068 23.247 52.2823 20.1538 51.3892C16.4547 50.3734 12.0654 48.3888 8.4765 49.5958C14.4604 58.0207 19.3444 66.838 21.034 76.9769C40.8849 67.3342 64.0352 62.0306 88.0656 66.1515C99.3297 67.9557 109.688 72.5737 119.76 76.3779C120.153 65.7464 126.833 57.2034 131.43 48.6675ZM165.519 106.479C175.681 109.186 185.876 120.33 196.637 113.1C187.265 97.4469 173.316 82.9923 177.195 62.5232C177.601 61.1258 176.704 59.7113 175.413 59.5128C169.334 62.0135 164.625 68.0423 162.219 73.9684C161.23 77.4731 160.644 81.1988 159.25 84.5024C151.966 80.6873 144.194 76.9914 135.321 77.8845C132.121 78.2859 127.533 78.497 126.943 81.8033C137.013 87.2196 145.294 96.2588 151.465 105.884C155.762 105.179 161.032 105.782 165.519 106.479ZM59.0301 120.625L59.3169 122.439C63.2132 125.052 64.4116 129.479 69.8057 129.077C74.5894 129.363 78.1783 124.852 80.5616 121.242C74.0883 120.343 66.2114 121.735 59.0301 120.625ZM64.417 112.501C64.6115 113.305 63.9231 114.51 65.0104 114.916C68.2013 114.218 73.9817 116.624 75.7636 112.811C74.5195 111.408 72.4884 110.771 70.3569 110.771C68.2264 110.771 66.0151 111.396 64.417 112.501Z" fill="#1D4D4F"/>
<path opacity="0.2" d="M63.076 113.853C65.9012 114.526 66.6004 115.534 68.8331 115.816C71.2066 115.774 70.8642 115.288 75.0043 113.85C75.2759 113.754 75.6497 113.15 75.1863 112.687C72.6156 110.119 70.8391 111.954 69.2275 112.003C67.0898 112.026 65.0847 110.161 62.9962 112.585C62.6404 113.078 62.4549 113.561 63.076 113.853Z" fill="#1D4D4F"/>
</g>
</g>
<defs>
<filter id="filter0_d_320_986" x="-15" y="0" width="420" height="208" filterUnits="userSpaceOnUse" color-interpolation-filters="sRGB">
<feFlood flood-opacity="0" result="BackgroundImageFix"/>
<feColorMatrix in="SourceAlpha" type="matrix" values="0 0 0 0 0 0 0 0 0 0 0 0 0 0 0 0 0 0 127 0" result="hardAlpha"/>
<feOffset dy="10"/>
<feGaussianBlur stdDeviation="16.5"/>
<feComposite in2="hardAlpha" operator="out"/>
<feColorMatrix type="matrix" values="0 0 0 0 0.101961 0 0 0 0 0.231373 0 0 0 0 0.203922 0 0 0 0.4 0"/>
<feBlend mode="normal" in2="BackgroundImageFix" result="effect1_dropShadow_320_986"/>
<feBlend mode="normal" in="SourceGraphic" in2="effect1_dropShadow_320_986" result="shape"/>
</filter>
</defs>
</svg>
