<svg width="354" height="142" viewBox="0 0 354 142" fill="none" xmlns="http://www.w3.org/2000/svg">
<rect width="354" height="142" rx="19.6211" fill="#4AA366"/>
<mask id="mask0_323_986" style="mask-type:alpha" maskUnits="userSpaceOnUse" x="0" y="0" width="354" height="142">
<rect width="354" height="142" rx="20" fill="#4AA366"/>
</mask>
<g mask="url(#mask0_323_986)">
<path opacity="0.2" d="M51.2034 19.9472C55.8965 22.6698 60.8747 26.1736 64.6644 29.8867L63.1756 31.3924C55.6976 30.5922 47.8215 31.5908 40.7325 31.7009C39.942 30.898 38.3492 29.691 39.8326 28.6824L51.2034 19.9472ZM183.43 113.44C183.53 116.837 183.847 119.755 182.53 123.232C168.868 127.142 159.894 112.584 146.639 114.78L148.137 122.326C160.401 122.732 168.061 134.568 180.73 134.059C178.931 137.677 181.533 147.21 173.559 143.399C165.281 141.398 159.297 134.059 150.226 134.059C149.131 136.081 149.824 138.882 149.632 141.274C159.201 142.785 166.083 150.925 175.65 152.428C174.75 155.737 173.858 159.442 171.164 161.46C163.381 159.554 157.302 152.519 149.017 152.72L147.541 159.649C155.415 159.853 160.503 166.865 167.579 168.969C167.774 171.892 165.178 174.504 163.683 177.113C157.401 175.214 152.61 169.782 145.432 170.183C145.333 167.461 146.938 164.37 146.332 161.46C138.271 163.873 132.865 156.334 126.89 151.812C126.718 137.012 111.238 127.304 110.421 113.44C110.264 110.676 110.683 107.725 111.934 104.554C117.021 92.7148 115.423 77.3436 109.845 66.3053C108.15 63.4005 105.146 61.1073 102.347 59.3996C106.442 68.1348 111.433 78.4559 108.942 89.1929C108.653 97.4843 103.793 105.447 103.737 113.44C103.718 116.29 104.322 119.14 105.951 122.017C112.437 133.774 124.105 144.902 119.718 159.647C118.511 164.175 114.919 167.677 114.022 172.286C121.61 178.611 128.784 185.738 138.851 186.139C142.438 183.833 140.446 173.608 147.825 178.324L158.6 183.749C157.815 186.652 155.4 189.253 153.213 191.252C149.125 189.25 145.137 186.849 140.04 187.045C138.537 188.65 137.243 190.451 137.358 192.754C140.945 193.349 144.236 194.873 147.232 196.984C145.841 199.999 143.13 201.889 140.637 204.199L132.279 201.191C130.883 203.201 127.984 205.313 129.002 207.518C130.888 208.331 132.98 209.43 134.368 210.838C130.679 214.852 126.003 217.434 121.503 220.158C117.627 207.408 104.857 198.469 105.954 183.725L105.36 183.129C102.358 186.525 103.361 191.957 103.555 196.365C107.147 205.6 115.716 212.733 117.016 222.86C115.516 225.466 112.133 225.986 109.538 227.089C109.839 208.83 82.3211 194.982 99.9679 176.513C105.853 167.469 115.714 158.838 112.22 146.387C108.633 134.366 95.9452 126.917 96.0573 113.44L96.077 112.389C98.9667 98.335 107.745 83.3806 100.564 68.4298C98.5625 62.4162 94.0907 55.5827 88.0083 53.0694C97.0764 63.5159 100.672 80.5606 95.4836 94.6174C92.869 100.209 89.2694 106.87 88.9082 113.443H88.8866C88.6939 116.875 89.3904 120.289 91.5909 123.526C98.4764 134.77 110.435 147.121 103.556 161.774C95.7794 173.51 82.2189 185.449 89.7919 200.908C95.2757 210.14 103.758 219.353 101.47 230.702L92.4961 233.71C98.4791 212.541 69.1603 200.102 81.4337 178.926C89.0112 167.586 102.564 156.947 94.892 141.897C90.3055 132.571 80.8287 127.052 81.1281 115.399L81.4543 113.442C84.5422 96.9142 97.0253 81.2696 88.2969 63.6079C86.0032 58.3928 81.4194 53.0757 76.3318 50.0626L76.0244 50.3721C86.2004 60.3071 89.2963 76.6535 83.8099 89.7938C81.25 97.5033 75.6318 105.183 74.4899 113.445C73.9467 117.34 74.4047 121.377 76.6411 125.63C83.1215 135.958 94.486 146.914 87.3943 160.267C79.9261 171.297 67.4582 182.028 72.4382 196.371C77.9237 208.919 89.3778 220.873 83.1932 236.433L73.9333 238.538C81.3091 223.374 70.2494 208.328 63.7708 195.177C55.8894 176.309 80.7041 167.274 81.1021 150.024C81.008 138.89 69.2473 132.568 66.7618 122.332C61.6715 118.01 56.3958 124.051 50.3106 122.93C45.8183 123.838 38.9184 116.706 36.2365 124.437C33.0429 135.771 18.4938 144.104 24.8882 157.547C30.9724 169.494 45.6148 178.23 40.7235 193.691C36.3441 208.132 21.8774 221.882 30.8496 238.538C27.164 237.336 20.2811 239.637 20.3806 233.711C14.6997 213.54 38.9255 201.789 31.443 181.629C27.9608 169.281 12.0949 162.459 15.5879 147.608C18.1702 135.382 31.8006 126.836 29.8888 113.444C29.7337 112.322 29.4594 111.175 29.0677 109.979C23.9802 95.5276 13.6008 81.073 19.7872 64.207C21.4857 59.3896 24.8783 55.276 27.8595 50.9702C17.9874 56.2873 13.0074 67.5304 13.2118 78.9683C12.7815 91.4067 21.9106 102.062 23.2094 113.444C23.7203 118.037 22.9727 122.741 19.7872 127.731C13.3113 136.575 4.84189 145.9 8.72476 157.546C12.4167 169.292 26.973 176.408 26.0758 190.062C25.9772 206.212 7.33098 216.268 12.6157 234.33L3.33517 231.3C-0.349625 215.25 16.5981 207.038 16.7926 192.187C19.1911 175.109 -2.45061 168.772 -1.15183 152.125C-1.24505 139.476 9.81739 131.465 14.7033 120.826C15.5413 118.237 15.8201 115.79 15.708 113.445C15.1093 101.681 4.57748 92.4839 6.32531 79.2579C6.9133 69.524 10.2037 60.9918 16.4878 53.6711C7.81769 57.1767 4.23597 67.2218 1.84099 75.653C-2.31527 89.1722 7.60615 101.333 8.60107 113.446C9.04206 118.794 7.74329 124.112 2.7427 129.549C-4.44044 138.069 -11.7249 148.819 -6.53874 160.269C-1.04697 172.903 16.2064 182.737 8.72297 198.496C4.64021 208.432 -5.13599 215.954 -4.73444 227.692C-7.32482 226.587 -10.012 225.487 -12.2134 223.485C-12.2134 208.535 8.91658 199.197 -1.15094 183.442C-2.04278 186.551 -2.2346 190.775 -2.93283 194.287C-6.4267 203.424 -13.902 210.737 -16.6995 220.182C-21.3774 218.366 -26.2686 214.548 -30.1596 210.534L-24.77 207.214C-25.3687 205.204 -26.9615 203.5 -28.3544 201.794C-31.8545 201.298 -34.1527 203.61 -37.038 204.515C-39.5307 202.303 -41.9364 200.295 -43.9235 197.586C-42.1345 192.458 -28.1554 196.698 -35.2373 188.266C-40.0183 185.258 -44.8172 189.555 -49.0039 191.562L-54.6794 184.347C-49.7936 181.339 -44.9203 177.114 -38.8432 178.326C-37.3454 181.04 -37.2414 185.032 -34.3562 186.45C-24.0843 186.248 -16.8061 178.429 -8.93193 172.305C-14.4201 164.086 -18.8874 152.739 -14.0123 142.8C-10.1061 132.839 0.0716476 124.45 0.533257 113.439C0.63723 110.933 0.249123 108.296 -0.839912 105.458C-6.22144 91.5069 -8.12076 72.6517 2.15112 60.3035C-3.43388 61.8136 -6.72697 68.8195 -8.62449 74.1393C-14.7993 87.7622 -6.98959 100.383 -6.7198 113.438C-6.68305 115.787 -6.87218 118.14 -7.43776 120.511C-12.7243 131.248 -21.2896 140.669 -22.6806 153.024C-28.7649 156.93 -33.7601 163.761 -42.4294 161.456C-42.7341 163.762 -42.0359 167.277 -41.2408 169.888C-48.1157 169.598 -52.8034 174.698 -58.5919 177.106C-61.6752 176.11 -62.4775 172.099 -63.6714 169.291C-56.896 166.988 -52.0084 160.152 -44.2292 160.26C-43.3275 157.739 -44.7347 155.428 -45.1318 153.022C-54.8085 148.699 -70.1473 174.392 -71.4371 152.117C-61.7676 151.514 -55.5883 142.48 -46.012 141.58L-45.726 134.365C-56.594 133.26 -63.5853 144.505 -74.4488 143.396L-76.8446 133.768C-64.2782 134.558 -56.7912 123.224 -44.8234 122.614C-43.2334 120.509 -43.0416 117.398 -42.735 114.49C-55.798 112.777 -64.7622 127.347 -78.6265 122.922C-78.6265 122.922 -79.1043 116.858 -79.3633 113.439H-79.3445C-79.4386 112.102 -79.5282 111.17 -79.5282 111.17C-67.1652 115.999 -56.3027 107.061 -45.726 102.448C-43.0362 101.638 -38.8414 103.042 -37.6349 100.035C-37.7398 97.7261 -33.5567 95.027 -37.0389 93.4158C-52.5014 91.3039 -62.7732 110.074 -78.6283 101.539L-79.8177 99.1262C-76.5193 53.7721 -51.1049 9.92374 -8.93193 -11.654C8.14843 -21.4781 29.368 -26.4858 50.7678 -26.6635C76.5936 -26.8791 102.689 -20.0609 122.102 -6.2305C140.953 5.40774 158.985 24.5877 168.772 44.0581C178.131 61.1172 182.439 80.2593 183.725 100.638C167.369 113.077 156.396 88.9196 139.741 94.326C140.638 96.9404 141.134 99.6449 143.038 101.852C157.8 101.748 167.965 117.304 183.417 111.173L183.43 113.44ZM-4.45031 57.5827C-14.8217 50.7564 -27.9708 57.184 -37.6367 60.9016C-38.5339 51.7649 -42.2205 43.4411 -49.9074 37.4203C-50.6531 37.0469 -51.6839 36.2611 -52.6125 36.2034C-53.1682 36.1682 -53.6971 36.3937 -54.1076 37.1091C-50.6236 58.6815 -64.5569 73.7342 -74.4308 90.0987C-71.1431 92.8032 -65.8611 92.3991 -61.8733 91.6043C-51.4061 87.3914 -41.4353 80.059 -28.972 82.5723C-25.2863 76.2502 -19.0936 70.1267 -14.0159 65.1091C-10.9137 62.4072 -6.65168 60.6914 -4.45031 57.5827ZM27.2635 71.1307C27.0645 72.4298 27.3629 74.7455 29.3528 73.8506C32.4487 69.5358 37.9297 72.9494 41.3178 73.2534V72.0391C39.4588 69.1009 35.6342 67.6251 31.7504 67.7721C30.8541 67.8037 29.9435 67.9354 29.0668 68.1402C27.7672 68.4307 26.8628 69.6278 27.2635 71.1307ZM76.0199 58.2024C73.2359 51.9787 66.8541 49.46 61.0629 47.9553C58.2243 47.6034 55.2781 47.3653 52.356 47.3373C51.8084 47.3319 51.2616 47.3247 50.7167 47.3373C42.5431 47.5033 34.7334 49.6152 29.9623 56.3865C29.2775 58.2981 26.2667 60.9828 29.0624 62.6959C35.3447 62.2918 42.5135 61.4988 46.7011 66.925C46.7011 71.7469 49.7944 78.1618 44.6118 80.4704C40.3175 76.4686 35.2318 82.1736 30.5592 78.962C28.3623 77.6557 26.9721 79.1803 26.0722 81.0865C24.7735 93.5276 31.2458 107.258 42.8102 114.18C47.4971 115.881 53.7973 117.5 58.6886 115.086C70.4537 109.572 75.327 96.9349 77.5177 85.2922C77.2237 83.0766 77.3285 78.759 74.2398 78.6544C70.7522 80.8745 65.6656 79.5628 61.9691 78.6544C59.7839 79.3644 59.6835 82.5822 57.1962 83.1921L55.6805 81.9751C54.3826 76.464 53.5822 68.6337 58.6725 64.8204C64.3605 62.5119 71.0408 61.5033 76.9234 63.3148C78.0214 61.4095 76.3265 59.9093 76.0199 58.2024ZM70.0172 68.0978C69.6219 68.1077 69.2374 68.1276 68.8484 68.1402C66.7591 69.543 60.6703 68.5344 62.8681 73.2534C66.6596 70.2349 71.9443 72.3504 75.7331 73.8506C77.134 73.1506 76.8302 71.7451 76.9225 70.5335C75.7062 68.2557 72.7994 68.0419 70.0172 68.0978ZM113.43 25.6675C106.049 25.2733 99.8693 29.4898 93.0877 31.3978C92.497 25.5899 96.881 19.4564 97.8813 13.626C86.9165 14.336 78.232 20.9783 69.1612 26.2846C67.062 21.1795 64.9566 16.0482 62.8717 10.9242L74.8368 -0.519188L75.1433 -2.02663L58.9817 -2.93236C56.1977 -7.84169 55.1006 -13.7551 51.8102 -18.2711C49.1176 -13.1534 47.3088 -7.73704 44.619 -2.62383L28.4762 -1.7154V-0.519188L40.728 10.6148C39.2303 16.3378 37.8383 22.5561 34.1526 26.8818C26.9739 22.5543 19.8975 17.8443 12.0268 14.8394C10.1329 14.2241 7.43316 13.2237 5.73821 14.5309C8.2273 20.0518 11.7131 25.9905 11.1269 32.0166C7.83471 31.4068 5.24703 29.2823 2.15382 28.3892C-1.54532 27.3734 -5.93462 25.3888 -9.5235 26.5958C-3.53964 35.0207 1.34443 43.838 3.034 53.9769C22.8849 44.3342 46.0352 39.0306 70.0656 43.1515C81.3297 44.9557 91.6877 49.5737 101.76 53.3779C102.153 42.7464 108.833 34.2034 113.43 25.6675ZM147.519 83.4789C157.681 86.1862 167.876 97.3301 178.637 90.0996C169.265 74.4469 155.316 59.9922 159.195 39.5232C159.601 38.1258 158.704 36.7113 157.413 36.5128C151.334 39.0135 146.625 45.0423 144.219 50.9684C143.23 54.4731 142.644 58.1988 141.25 61.5024C133.966 57.6873 126.194 53.9914 117.321 54.8845C114.121 55.2859 109.533 55.497 108.943 58.8033C119.013 64.2196 127.294 73.2588 133.465 82.8844C137.762 82.179 143.032 82.7816 147.519 83.4789ZM41.0301 97.6251L41.3169 99.4392C45.2132 102.052 46.4116 106.479 51.8057 106.077C56.5894 106.363 60.1783 101.852 62.5616 98.2421C56.0883 97.3427 48.2114 98.7347 41.0301 97.6251ZM46.417 89.5015C46.6115 90.3053 45.9231 91.5096 47.0104 91.9156C50.2013 91.2182 55.9817 93.6242 57.7636 89.8109C56.5195 88.4081 54.4884 87.7712 52.3569 87.7712C50.2264 87.7712 48.0151 88.3964 46.417 89.5015Z" fill="#1D4D4F"/>
<path opacity="0.2" d="M45.076 90.8529C47.9012 91.5259 48.6004 92.5344 50.8331 92.8159C53.2066 92.7735 52.8642 92.2882 57.0043 90.8502C57.2759 90.7537 57.6497 90.1501 57.1863 89.6873C54.6156 87.119 52.8391 88.9539 51.2275 89.0026C49.0898 89.0261 47.0847 87.1605 44.9962 89.5854C44.6404 90.078 44.4549 90.5615 45.076 90.8529Z" fill="#1D4D4F"/>
</g>
</svg>
