<svg width="184" height="19" viewBox="0 0 184 19" fill="none" xmlns="http://www.w3.org/2000/svg">
<g clip-path="url(#clip0_238_3045)">
<path d="M116.507 10.157C116.493 15.7112 113.525 18.6841 107.984 18.6841C102.544 18.6841 99.4891 15.6202 99.5027 10.2116L99.5346 0.36881H105.64L105.626 9.89751C105.617 12.5381 106.3 13.7081 107.948 13.699C109.591 13.7035 110.388 12.6473 110.397 9.62435L110.425 0.364258H116.539L116.507 10.157Z" fill="#1D4D4F"/>
<path d="M28.9003 4.91236L28.8593 18.3108H22.6813L22.7223 4.91236L17.5551 4.91691L17.5687 0.364258L34.0766 0.36881L34.063 4.91691L28.9003 4.91236Z" fill="#1D4D4F"/>
<path d="M44.4658 4.45709L42.9315 10.6032L46.0046 10.6077L44.4658 4.45709ZM48.3993 18.3108L47.3704 15.0192H41.5748L40.4777 18.3108L34.327 18.3154L40.6188 0.364258H48.4266L54.5545 18.3108H48.3993Z" fill="#1D4D4F"/>
<path d="M136.297 16.9271L134.458 12.2698C133.37 13.1257 132.264 13.8996 130.47 13.8951C128.048 13.8951 126.436 11.8145 126.445 9.27411C126.45 6.69731 127.875 4.54391 130.402 4.53936C131.991 4.53025 133.379 5.36794 134.481 6.29213L136.311 1.73947C134.271 0.665048 132.236 0.0185713 129.432 0.0185713C124.237 0.00946604 120.29 3.73354 120.277 9.22404C120.258 15.0196 124.078 18.689 129.55 18.689C132.564 18.6844 134.681 17.956 136.297 16.9271Z" fill="#1D4D4F"/>
<path d="M150.169 18.3152L146.327 11.7776L146.304 18.3243L140.304 18.3152L140.358 0.368652H146.359L146.336 6.94268L149.973 0.373205H156.67L151.016 9.21901L157.344 18.3198L150.169 18.3152Z" fill="#1D4D4F"/>
<path d="M7.20685 18.6795C11.0994 18.675 15.1285 17.2272 15.1376 12.6382C15.1558 8.49525 11.7868 7.36619 9.16904 6.76979C7.19319 6.33274 6.23713 6.11421 6.24624 5.28563C6.24624 4.19299 7.58472 4.10194 8.29493 4.10194C10.075 4.10649 11.7322 4.86679 13.1572 5.77276L14.7688 1.68448C12.6746 0.742082 10.1479 0 7.77593 0C3.73773 0 0.573634 2.03959 0.569082 6.13698C0.555424 9.50139 2.98654 10.7989 5.68171 11.4954C7.53919 11.9735 8.73199 12.1283 8.72744 13.0843C8.72288 14.0495 7.81235 14.3363 6.92458 14.3317C4.95784 14.3363 3.0958 13.444 1.94854 12.4014L0 16.3668C2.08511 17.7872 4.6346 18.6795 7.20685 18.6795Z" fill="#1D4D4F"/>
<path d="M166.427 18.6839C170.315 18.6839 174.353 17.2407 174.367 12.6471C174.376 8.5042 171.016 7.37059 168.393 6.78329C166.413 6.33713 165.466 6.12771 165.471 5.29913C165.48 4.19739 166.805 4.11544 167.515 4.11089C169.295 4.11544 170.952 4.87573 172.372 5.79082L173.993 1.69798C171.894 0.755582 169.359 0.0134998 166.996 0.00439453C162.962 0.0134998 159.798 2.03943 159.789 6.14592C159.775 9.51489 162.215 10.8169 164.897 11.5135C166.754 11.9915 167.952 12.1327 167.943 13.1024C167.943 14.063 167.032 14.3498 166.144 14.3498C164.182 14.3498 162.32 13.4575 161.159 12.4149L159.22 16.3803C161.305 17.7916 163.864 18.6839 166.427 18.6839Z" fill="#1D4D4F"/>
<path d="M70.8438 11.6093C72.9426 10.808 74.0898 8.58635 74.0898 6.524C74.108 2.29003 71.3446 0.36881 67.4111 0.373363L58.151 0.364258L58.1055 18.3108H64.0467L64.0603 12.9888H65.5627L68.6312 18.3108H75.0504L70.8438 11.6093ZM68.0758 6.54676C68.0667 7.7259 67.361 8.40879 66.191 8.40879L64.0786 8.40424L64.0922 4.65741H66.2274C67.3565 4.66196 68.0849 5.26291 68.0803 6.49213V6.54676H68.0758Z" fill="#1D4D4F"/>
<path d="M91.686 9.15072C93.9168 8.64993 95.0185 7.33421 95.0231 5.14894C95.0367 2.08956 92.8515 0.368652 88.9954 0.368652L79.2163 0.373205L79.1753 18.3243H88.5629C93.0973 18.3107 95.36 16.6398 95.3645 13.2527C95.3691 10.9171 93.9623 9.34193 91.686 9.15072ZM85.0892 4.26117H87.2426C88.3762 4.25206 89.1183 4.76651 89.1183 5.81818L89.1137 5.86826C89.1137 6.86529 88.3944 7.44803 87.2107 7.45258L85.0846 7.45713L85.0892 4.26117ZM89.182 12.761C89.1866 13.8081 88.4445 14.4272 87.2335 14.4227L85.0573 14.4272L85.0664 11.0628H87.2654C88.4263 11.0628 89.182 11.6046 89.1866 12.7109L89.182 12.761Z" fill="#1D4D4F"/>
<path d="M178.837 1.26139H177.553V5.50447H176.87V1.26139H175.605V0.624023H178.842V1.26139H178.837ZM180.121 5.50902H179.438V0.624023H180.494L181.742 4.32533L182.948 0.624023H184V5.50902H183.317V1.42984H183.299L181.942 5.50447H181.501L180.144 1.42984H180.126V5.50902H180.121Z" fill="#1D4D4F"/>
</g>
<defs>
<clipPath id="clip0_238_3045">
<rect width="184" height="18.6841" fill="white"/>
</clipPath>
</defs>
</svg>
