<svg width="262" height="201" viewBox="0 0 262 201" fill="none" xmlns="http://www.w3.org/2000/svg">
<g clip-path="url(#clip0_30_2784)">
<path d="M165.364 188.416C165.344 196.3 161.131 200.519 153.267 200.519C145.546 200.519 141.21 196.171 141.229 188.494L141.274 174.524H149.94L149.92 188.048C149.907 191.796 150.877 193.457 153.216 193.444C155.548 193.45 156.679 191.951 156.692 187.66L156.731 174.517H165.409L165.364 188.416Z" fill="white"/>
<path d="M41.0195 180.972L40.9614 199.989H32.1927L32.2509 180.972L24.9167 180.979L24.9361 174.517L48.3666 174.524L48.3472 180.979L41.0195 180.972Z" fill="white"/>
<path d="M63.1123 180.326L60.9347 189.05L65.2964 189.056L63.1123 180.326ZM68.6953 199.989L67.235 195.318H59.0091L57.4518 199.989L48.7219 199.996L57.6521 174.517H68.7341L77.4317 199.989H68.6953Z" fill="white"/>
<path d="M193.453 198.025L190.843 191.415C189.298 192.629 187.728 193.728 185.182 193.721C181.744 193.721 179.457 190.768 179.47 187.163C179.476 183.505 181.499 180.449 185.085 180.442C187.34 180.43 189.311 181.619 190.875 182.93L193.473 176.468C190.578 174.943 187.689 174.026 183.709 174.026C176.336 174.013 170.734 179.299 170.714 187.092C170.688 195.318 176.11 200.526 183.877 200.526C188.155 200.519 191.159 199.485 193.453 198.025Z" fill="white"/>
<path d="M213.142 199.996L207.689 190.717L207.656 200.009L199.14 199.996L199.217 174.523H207.734L207.702 183.854L212.865 174.53H222.37L214.344 187.085L223.326 200.002L213.142 199.996Z" fill="white"/>
<path d="M10.229 200.513C15.7539 200.506 21.4726 198.451 21.4855 191.938C21.5113 186.058 16.7296 184.455 13.0141 183.609C10.2096 182.988 8.85266 182.678 8.86559 181.502C8.86559 179.951 10.7654 179.822 11.7734 179.822C14.3 179.829 16.6521 180.908 18.6746 182.194L20.9621 176.391C17.9896 175.053 14.4033 174 11.0367 174C5.30514 174 0.814186 176.895 0.807725 182.711C0.788339 187.486 4.23894 189.327 8.06432 190.316C10.7007 190.995 12.3937 191.214 12.3873 192.571C12.3808 193.941 11.0884 194.348 9.82839 194.342C7.0369 194.348 4.39402 193.082 2.76565 191.602L0 197.23C2.9595 199.246 6.57811 200.513 10.229 200.513Z" fill="white"/>
<path d="M236.218 200.519C241.736 200.519 247.468 198.471 247.487 191.951C247.5 186.071 242.731 184.462 239.009 183.628C236.198 182.995 234.854 182.697 234.861 181.521C234.873 179.958 236.754 179.841 237.762 179.835C240.288 179.841 242.641 180.92 244.657 182.219L246.957 176.41C243.978 175.073 240.379 174.019 237.025 174.006C231.3 174.019 226.809 176.895 226.796 182.723C226.777 187.505 230.24 189.353 234.046 190.342C236.683 191.02 238.382 191.221 238.369 192.597C238.369 193.96 237.077 194.367 235.817 194.367C233.032 194.367 230.389 193.101 228.741 191.621L225.989 197.249C228.948 199.253 232.58 200.519 236.218 200.519Z" fill="white"/>
<path d="M100.552 190.478C103.531 189.34 105.159 186.187 105.159 183.26C105.185 177.25 101.263 174.524 95.6798 174.53L82.5365 174.517L82.4719 199.989H90.9046L90.924 192.436H93.0563L97.4116 199.989H106.523L100.552 190.478ZM96.6233 183.292C96.6103 184.966 95.6088 185.935 93.9481 185.935L90.9498 185.929L90.9692 180.611H93.9998C95.6023 180.617 96.6362 181.47 96.6297 183.215V183.292H96.6233Z" fill="white"/>
<path d="M130.134 186.988C133.3 186.277 134.864 184.41 134.871 181.308C134.89 176.966 131.788 174.523 126.315 174.523L112.435 174.53L112.377 200.009H125.701C132.137 199.989 135.349 197.618 135.355 192.81C135.362 189.495 133.365 187.26 130.134 186.988ZM120.771 180.048H123.828C125.436 180.035 126.49 180.766 126.49 182.258L126.483 182.329C126.483 183.744 125.462 184.572 123.782 184.578L120.765 184.584L120.771 180.048ZM126.58 192.112C126.587 193.599 125.533 194.477 123.815 194.471L120.726 194.477L120.739 189.702H123.86C125.508 189.702 126.58 190.471 126.587 192.041L126.58 192.112Z" fill="white"/>
<path d="M253.832 175.79H252.01V181.812H251.041V175.79H249.244V174.885H253.839V175.79H253.832ZM255.654 181.819H254.685V174.885H256.184L257.955 180.139L259.667 174.885H261.16V181.819H260.191V176.029H260.165L258.239 181.812H257.612L255.687 176.029H255.661V181.819H255.654Z" fill="white"/>
</g>
<g clip-path="url(#clip1_30_2784)">
<path d="M202.04 71.5067C202.04 110.93 170.242 142.889 131.024 142.889C91.7984 142.889 60.0002 110.93 60.0002 71.5067C60.0002 32.0835 91.7984 0.124023 131.016 0.124023C170.242 0.124023 202.04 32.0835 202.04 71.5067Z" fill="white"/>
<path d="M130.613 24.9637C133.142 26.4227 135.826 28.2997 137.864 30.2866L137.065 31.0931C133.032 30.6679 128.787 31.1958 124.967 31.2617C124.542 30.8292 123.684 30.184 124.483 29.6414L130.613 24.9637ZM201.878 75.0254C201.93 76.8437 202.105 78.4054 201.394 80.2677C194.033 82.3646 189.194 74.5635 182.053 75.7439L182.859 79.7838C189.465 80.0037 193.601 86.3384 200.427 86.0672C199.459 88.0028 200.859 93.113 196.563 91.0675C192.105 89.997 188.879 86.0672 183.989 86.0672C183.402 87.1523 183.769 88.648 183.666 89.931C188.828 90.7375 192.53 95.1 197.692 95.9065C197.208 97.6808 196.724 99.6604 195.272 100.745C191.078 99.7264 187.801 95.9578 183.336 96.0678L182.537 99.7777C186.782 99.8877 189.524 103.642 193.337 104.771C193.439 106.332 192.039 107.733 191.24 109.133C187.852 108.114 185.272 105.211 181.4 105.423C181.349 103.964 182.214 102.307 181.884 100.753C177.537 102.043 174.626 98.0107 171.407 95.5839C171.312 87.6582 162.968 82.4599 162.528 75.0328C162.44 73.5517 162.668 71.9754 163.342 70.2744C166.084 63.9324 165.219 55.6987 162.213 49.7893C161.297 48.2349 159.684 47.0032 158.173 46.094C160.38 50.7717 163.071 56.2999 161.729 62.0481C161.575 66.4912 158.958 70.751 158.921 75.0328C158.914 76.5578 159.236 78.0828 160.116 79.6225C163.613 85.9205 169.897 91.874 167.536 99.7703C166.883 102.197 164.948 104.074 164.464 106.538C168.555 109.925 172.419 113.745 177.844 113.957C179.78 112.726 178.702 107.249 182.683 109.771L188.49 112.674C188.065 114.229 186.767 115.622 185.587 116.692C183.38 115.622 181.232 114.331 178.49 114.441C177.676 115.299 176.979 116.267 177.045 117.499C178.981 117.814 180.755 118.635 182.368 119.764C181.62 121.377 180.154 122.389 178.812 123.628L174.311 122.015C173.555 123.093 171.994 124.222 172.544 125.402C173.555 125.842 174.684 126.429 175.432 127.184C173.445 129.332 170.923 130.718 168.496 132.177C166.407 125.351 159.522 120.563 160.116 112.667L159.794 112.344C158.173 114.163 158.716 117.073 158.818 119.434C160.754 124.376 165.373 128.203 166.077 133.621C165.27 135.014 163.445 135.293 162.044 135.887C162.206 126.106 147.373 118.694 156.883 108.803C160.057 103.957 165.373 99.3378 163.489 92.6731C161.553 86.2358 154.72 82.2473 154.779 75.0328L154.793 74.4682C156.348 66.9458 161.084 58.9321 157.213 50.9257C156.135 47.707 153.723 44.0485 150.445 42.6994C155.336 48.2936 157.271 57.4217 154.478 64.9515C153.07 67.9429 151.127 71.5135 150.937 75.0328H150.922C150.819 76.873 151.193 78.6987 152.381 80.429C156.091 86.4484 162.536 93.0617 158.826 100.914C154.632 107.197 147.329 113.591 151.406 121.868C154.361 126.81 158.936 131.744 157.697 137.823L152.858 139.436C156.084 128.101 140.284 121.436 146.897 110.101C150.981 104.03 158.283 98.3333 154.148 90.2756C151.677 85.2827 146.567 82.3279 146.728 76.0885L146.904 75.0401C148.568 66.1906 155.299 57.8103 150.592 48.3522C149.353 45.5588 146.882 42.7141 144.14 41.1011L143.979 41.2697C149.463 46.5926 151.127 55.3468 148.173 62.378C146.794 66.5058 143.766 70.619 143.15 75.0401C142.857 77.1223 143.106 79.2852 144.309 81.5654C147.799 87.0936 153.928 92.9591 150.101 100.115C146.076 106.017 139.36 111.765 142.043 119.449C144.998 126.172 151.171 132.573 147.843 140.902L142.85 142.031C146.824 133.907 140.863 125.857 137.373 118.811C133.128 108.708 146.501 103.869 146.714 94.6307C146.662 88.67 140.328 85.2827 138.986 79.8058C136.244 77.4889 133.399 80.7296 130.122 80.1284C127.702 80.6123 123.978 76.7924 122.533 80.9349C120.81 87.0056 112.972 91.4634 116.418 98.6632C119.696 105.057 127.592 109.742 124.953 118.019C122.592 125.754 114.798 133.116 119.63 142.031C117.643 141.386 113.933 142.618 113.984 139.443C110.92 128.643 123.978 122.352 119.945 111.553C118.068 104.939 109.519 101.288 111.403 93.333C112.796 86.7857 120.143 82.2106 119.109 75.0401C119.029 74.4389 118.875 73.823 118.669 73.1851C115.927 65.4501 110.333 57.7077 113.669 48.6748C114.585 46.094 116.411 43.8945 118.017 41.585C112.716 44.4224 110.032 50.4418 110.142 56.5639C109.908 63.2212 114.827 68.9327 115.531 75.0254C115.81 77.4889 115.407 80.0037 113.684 82.6799C110.194 87.4162 105.626 92.4092 107.723 98.6486C109.71 104.939 117.555 108.752 117.071 116.062C117.02 124.706 106.968 130.095 109.82 139.765L104.819 138.145C102.833 129.552 111.968 125.153 112.071 117.198C113.361 108.055 101.696 104.661 102.4 95.7452C102.349 88.9706 108.309 84.6814 110.942 78.9846C111.396 77.5989 111.543 76.2865 111.484 75.0328C111.161 68.7347 105.487 63.8077 106.425 56.7252C106.74 51.5123 108.515 46.9445 111.902 43.022C107.232 44.8989 105.296 50.2805 104.006 54.7896C101.762 62.0261 107.114 68.5368 107.65 75.0254C107.884 77.8922 107.188 80.7369 104.49 83.6477C100.618 88.2081 96.6885 93.9635 99.4892 100.1C102.451 106.868 111.748 112.132 107.716 120.571C105.516 125.894 100.244 129.919 100.464 136.21C99.0713 135.616 97.6196 135.029 96.4319 133.959C96.4319 125.952 107.818 120.952 102.393 112.513C101.909 114.177 101.806 116.443 101.432 118.32C99.5479 123.21 95.5227 127.125 94.0124 132.184C91.4902 131.209 88.8581 129.164 86.7612 127.015L89.6646 125.241C89.342 124.163 88.4842 123.254 87.729 122.338C85.8447 122.074 84.6056 123.313 83.0513 123.797C81.7095 122.609 80.4118 121.539 79.3414 120.087C80.3092 117.337 87.839 119.61 84.0264 115.094C81.4529 113.481 78.8648 115.783 76.6066 116.861L73.5492 112.997C76.1813 111.384 78.8061 109.126 82.0835 109.771C82.89 111.223 82.9486 113.364 84.503 114.119C90.0385 114.009 93.961 109.822 98.2062 106.545C95.2514 102.146 92.8393 96.0678 95.4714 90.7449C97.5756 85.4073 103.06 80.9202 103.309 75.0254C103.368 73.6837 103.155 72.2687 102.569 70.751C99.6652 63.2798 98.6461 53.1839 104.182 46.5706C101.168 47.3771 99.3939 51.131 98.3748 53.9831C95.0461 61.2783 99.2546 68.0382 99.4012 75.0254C99.4232 76.2865 99.3206 77.5402 99.0127 78.816C96.1606 84.5641 91.5489 89.6084 90.7937 96.2291C87.5164 98.3186 84.8256 101.977 80.1479 100.745C79.9866 101.977 80.3605 103.862 80.7857 105.262C77.0832 105.108 74.5537 107.835 71.4377 109.126C69.7733 108.591 69.3407 106.442 68.7029 104.939C72.3541 103.708 74.9863 100.049 79.1801 100.1C79.664 98.7512 78.9088 97.5121 78.6962 96.2217C73.4832 93.9049 65.2129 107.667 64.5164 95.7378C69.7293 95.4152 73.058 90.5762 78.2196 90.0923L78.3736 86.2285C72.5154 85.6346 68.7469 91.6613 62.8961 91.0675L61.6057 85.9132C68.3803 86.3384 72.4128 80.2677 78.8648 79.9378C79.7226 78.8087 79.8253 77.1443 79.9939 75.59C72.9553 74.6735 68.1237 82.4746 60.6525 80.1064C60.6525 80.1064 60.3959 76.8584 60.2566 75.0254H60.2639C60.2126 74.3069 60.1613 73.8083 60.1613 73.8083C66.8259 76.3965 72.6767 71.6088 78.3809 69.138C79.8326 68.7054 82.0908 69.4532 82.7433 67.8476C82.6847 66.6085 84.9429 65.1641 83.0659 64.3063C74.7296 63.1772 69.1941 73.2291 60.6525 68.6541L60 67.3637C61.7816 43.0733 75.4775 19.5968 98.2062 8.04185C107.408 2.7776 118.845 0.0941463 130.378 -0.00116746C144.294 -0.118477 158.364 3.53277 168.826 10.9379C178.988 17.17 188.703 27.4419 193.982 37.8677C199.026 47.0032 201.35 57.2531 202.04 68.1628C193.227 74.8201 187.31 61.8868 178.336 64.7829C178.82 66.1832 179.091 67.6276 180.11 68.8154C188.065 68.7567 193.542 77.093 201.871 73.8083L201.878 75.0254ZM100.618 45.1116C95.0315 41.453 87.9416 44.8989 82.736 46.8859C82.2521 41.9955 80.2652 37.5378 76.1227 34.3118C75.7194 34.1138 75.1622 33.6886 74.6637 33.6593C74.3631 33.6373 74.0771 33.7619 73.8572 34.1432C75.7341 45.6981 68.2263 53.7558 62.9034 62.5173C64.6777 63.969 67.5225 63.7491 69.6707 63.3238C75.3089 61.0656 80.6831 57.1431 87.4064 58.4848C89.3933 55.0975 92.7293 51.8202 95.4641 49.1367C97.1357 47.6997 99.4306 46.7759 100.618 45.1116ZM117.709 52.3701C117.599 53.0666 117.76 54.3057 118.838 53.8291C120.51 51.5196 123.457 53.3452 125.29 53.5065V52.854C124.285 51.2776 122.225 50.4931 120.136 50.5665C119.652 50.5811 119.161 50.6544 118.691 50.7644C117.98 50.9257 117.496 51.5636 117.709 52.3701ZM143.993 45.4488C142.49 42.1129 139.052 40.7711 135.928 39.9646C134.396 39.774 132.812 39.6494 131.236 39.6347C130.943 39.6347 130.649 39.6274 130.349 39.6347C125.942 39.7227 121.734 40.8518 119.161 44.481C118.794 45.5075 117.166 46.9445 118.677 47.861C122.064 47.6411 125.928 47.2158 128.186 50.1265C128.186 52.7073 129.85 56.146 127.057 57.3777C124.74 55.2368 121.998 58.2869 119.483 56.5712C118.295 55.8747 117.548 56.6885 117.064 57.7077C116.36 64.3723 119.85 71.7188 126.082 75.4287C128.604 76.3378 132.006 77.203 134.638 75.9126C140.98 72.9579 143.605 66.1906 144.785 59.9585C144.624 58.7708 144.683 56.4612 143.018 56.4026C141.141 57.5903 138.399 56.8865 136.405 56.4026C135.225 56.7838 135.173 58.5068 133.832 58.8294L133.018 58.1769C132.321 55.2295 131.889 51.0357 134.631 48.9901C137.695 47.751 141.295 47.2158 144.47 48.1836C145.071 47.1645 144.155 46.358 143.993 45.4488ZM140.753 50.7424C140.54 50.7497 140.335 50.7571 140.122 50.7644C138.993 51.5123 135.716 50.977 136.896 53.5065C138.942 51.8862 141.787 53.0226 143.832 53.8291C144.587 53.4552 144.426 52.7 144.477 52.0548C143.817 50.8304 142.256 50.7131 140.753 50.7424ZM164.156 28.0211C160.175 27.8085 156.846 30.0667 153.195 31.0931C152.88 27.9844 155.24 24.6998 155.776 21.5764C149.866 21.9577 145.189 25.5136 140.298 28.3583C139.169 25.6236 138.033 22.8741 136.911 20.132L143.356 14.0026L143.524 13.1961L134.814 12.7122C133.311 10.0801 132.724 6.92008 130.95 4.50057C129.498 7.24268 128.523 10.1388 127.072 12.8809L118.369 13.3648V14.0026L124.975 19.9634C124.168 23.0281 123.42 26.3568 121.433 28.6736C117.562 26.3568 113.75 23.8346 109.512 22.2289C108.493 21.899 107.034 21.3638 106.125 22.0603C107.466 25.015 109.343 28.197 109.028 31.423C107.254 31.0931 105.861 29.9567 104.189 29.4801C102.195 28.9376 99.8265 27.8744 97.8982 28.5196C101.124 33.0287 103.756 37.7504 104.665 43.1833C115.363 38.0217 127.841 35.1769 140.789 37.3838C146.86 38.3516 152.44 40.8224 157.873 42.8607C158.078 37.1712 161.678 32.5961 164.156 28.0211ZM182.522 58.9834C187.999 60.4351 193.491 66.4032 199.297 62.532C194.246 54.1517 186.731 46.4093 188.82 35.4482C189.04 34.7004 188.556 33.9452 187.86 33.8352C184.582 35.1769 182.046 38.4029 180.748 41.5776C180.213 43.4546 179.897 45.4488 179.15 47.2158C175.227 45.1702 171.033 43.1906 166.253 43.6745C164.53 43.8872 162.059 44.0045 161.736 45.7714C167.162 48.6748 171.627 53.5138 174.956 58.6681C177.265 58.2869 180.103 58.6095 182.522 58.9834ZM125.129 66.5572L125.283 67.5323C127.38 68.9327 128.025 71.3009 130.935 71.0882C133.516 71.2422 135.445 68.8227 136.735 66.8944C133.245 66.4032 129 67.151 125.129 66.5572ZM128.032 62.2094C128.135 62.642 127.768 63.2872 128.355 63.4998C130.078 63.1259 133.186 64.4163 134.147 62.3707C133.48 61.6228 132.38 61.2783 131.236 61.2783C130.085 61.2783 128.897 61.6155 128.032 62.2094Z" fill="#4AA366"/>
<path opacity="0.99" d="M125.136 60.3403H136.918V65.1793H125.136V60.3403Z" fill="white"/>
<path d="M127.314 62.9287C128.839 63.288 129.213 63.8305 130.415 63.9772C131.691 63.9552 131.508 63.6912 133.744 62.9214C133.89 62.8701 134.088 62.5475 133.839 62.2982C132.453 60.9198 131.493 61.9023 130.628 61.9316C129.477 61.9463 128.392 60.9491 127.27 62.2469C127.079 62.5181 126.977 62.7747 127.314 62.9287Z" fill="#4AA366"/>
</g>
<defs>
<clipPath id="clip0_30_2784">
<rect width="261.16" height="26.5192" fill="white" transform="translate(0 174)"/>
</clipPath>
<clipPath id="clip1_30_2784">
<rect width="142.04" height="142.89" fill="white" transform="translate(60)"/>
</clipPath>
</defs>
</svg>
