<svg width="114" height="114" viewBox="0 0 114 114" fill="none" xmlns="http://www.w3.org/2000/svg">
<path opacity="0.07" d="M56.9979 114C52.6145 114 48.2367 112.335 44.8906 109.012L40.7294 104.851C39.1163 103.243 36.9559 102.354 34.6644 102.348H28.8103C19.348 102.348 11.647 94.6472 11.647 85.1845V79.3245C11.6413 77.0387 10.7521 74.8782 9.13891 73.2536L5.04616 69.1664C-1.65728 62.5027 -1.68578 51.6092 4.98346 44.8999L9.14461 40.7329C10.7521 39.1197 11.6413 36.9592 11.647 34.6677V28.8191C11.647 19.3507 19.348 11.6495 28.8103 11.6495H34.6701C36.9559 11.6495 39.1106 10.7603 40.7351 9.13565L44.8336 5.04847C51.4972 -1.65518 62.3846 -1.68939 69.0994 4.98577L73.2606 9.14705C74.8795 10.7603 77.0341 11.6495 79.3199 11.6495H85.1797C94.6421 11.6495 102.343 19.3507 102.343 28.8191V34.6734C102.349 36.9592 103.238 39.1197 104.851 40.7443L108.944 44.8372C112.187 48.0636 113.983 52.3617 114 56.9505C114.011 61.5108 112.256 65.8032 109.058 69.0467C109.001 69.1037 108.95 69.1664 108.893 69.2178L104.845 73.265C103.238 74.8782 102.349 77.0387 102.343 79.3302V85.1845C102.343 94.6472 94.6421 102.348 85.1797 102.348H79.3199C77.0341 102.354 74.8738 103.243 73.2549 104.857L69.1565 108.949C65.8161 112.313 61.4042 114 56.9979 114Z" fill="#4AA366"/>
<path d="M56.9983 104.997C53.3071 104.997 49.6207 103.595 46.803 100.797L43.299 97.2929C41.9406 95.9393 40.1214 95.1905 38.1918 95.1857H33.2622C25.2942 95.1857 18.8094 88.7009 18.8094 80.7329V75.7985C18.8046 73.8737 18.0558 72.0545 16.6974 70.6865L13.251 67.2449C7.60616 61.6337 7.58216 52.4609 13.1982 46.8113L16.7022 43.3025C18.0558 41.9441 18.8046 40.1249 18.8094 38.1953V33.2705C18.8094 25.2977 25.2942 18.8129 33.2622 18.8129H38.1966C40.1214 18.8129 41.9358 18.0641 43.3038 16.6961L46.755 13.2545C52.3663 7.60967 61.5343 7.58087 67.1887 13.2017L70.6927 16.7057C72.0559 18.0641 73.8703 18.8129 75.7951 18.8129H80.7295C88.6975 18.8129 95.1823 25.2977 95.1823 33.2705V38.2001C95.1871 40.1249 95.9359 41.9441 97.2943 43.3121L100.741 46.7585C103.472 49.4753 104.984 53.0945 104.998 56.9585C105.008 60.7985 103.529 64.4129 100.837 67.1441C100.789 67.1921 100.745 67.2449 100.697 67.2881L97.2895 70.6961C95.9359 72.0545 95.1871 73.8737 95.1823 75.8033V80.7329C95.1823 88.7009 88.6975 95.1857 80.7295 95.1857H75.7951C73.8703 95.1905 72.0511 95.9393 70.6879 97.2977L67.2367 100.744C64.4239 103.576 60.7087 104.997 56.9983 104.997Z" fill="url(#paint0_linear_143_1286)"/>
<path d="M52.1862 70.0034C51.2771 70.0034 50.3679 69.6632 49.6739 68.9789L40.0427 59.4818C38.6547 58.113 38.6547 55.8958 40.0427 54.5311C41.4308 53.1623 43.6752 53.1583 45.0633 54.5271L52.1862 61.5509L68.9402 45.03C70.3282 43.6612 72.5726 43.6612 73.9607 45.03C75.3487 46.3987 75.3487 48.6159 73.9607 49.9846L54.6985 68.9789C54.0045 69.6632 53.0953 70.0034 52.1862 70.0034Z" fill="white"/>
<defs>
<linearGradient id="paint0_linear_143_1286" x1="4.99976" y1="101.5" x2="290.5" y2="-121" gradientUnits="userSpaceOnUse">
<stop offset="0.0677083" stop-color="#4AA366"/>
<stop offset="1" stop-color="#1D4D4F"/>
</linearGradient>
</defs>
</svg>
