<svg width="32" height="31" viewBox="0 0 32 31" fill="none" xmlns="http://www.w3.org/2000/svg">
<path fill-rule="evenodd" clip-rule="evenodd" d="M1.47395 2.64563C2.06262 1.48475 3.31099 0.745117 4.68168 0.745117H26.474C27.6219 0.745117 28.6991 1.26537 29.3657 2.14177L30.973 4.25491C31.9771 5.57499 30.9708 7.40733 29.2418 7.40733C29.0014 7.40733 28.7969 7.57166 28.7601 7.79443L25.6452 26.6323C25.2538 28.9991 23.0811 30.7451 20.5271 30.7451H11.1576C8.52864 30.7451 6.31675 28.898 6.01304 26.4491L3.76139 8.29293C3.69878 7.7881 3.24281 7.40733 2.70088 7.40733C1.01046 7.40733 -0.102711 5.75488 0.623263 4.32322L1.47395 2.64563ZM4.68168 3.60226C4.48665 3.60226 4.30903 3.7075 4.22527 3.87267L3.80966 4.69228C5.383 5.10474 6.59058 6.37443 6.78757 7.96286L9.03922 26.119C9.16428 27.1274 10.0751 27.888 11.1576 27.888H20.5271C21.5788 27.888 22.4734 27.169 22.6346 26.1944L25.7495 7.3566C25.9326 6.24907 26.6874 5.34077 27.7057 4.87929L26.8855 3.80098C26.7906 3.67628 26.6373 3.60226 26.474 3.60226H4.68168Z" fill="#1D4D4F"/>
</svg>
