<svg width="24" height="24" viewBox="0 0 24 24" fill="none" xmlns="http://www.w3.org/2000/svg">
<path d="M17.5 13.18V13.5336L17.8333 13.6514C18.3196 13.8233 18.7408 14.1415 19.0392 14.5622C19.3375 14.9827 19.4984 15.4852 19.5 16.0008V18C19.5 18.1326 19.4473 18.2598 19.3536 18.3536C19.2598 18.4473 19.1326 18.5 19 18.5H15.86H15.4777L15.3775 18.8689C15.176 19.6103 14.7361 20.2649 14.1257 20.7315C13.5153 21.1982 12.7683 21.451 12 21.451C11.2317 21.451 10.4847 21.1982 9.87427 20.7315C9.26388 20.2649 8.824 19.6103 8.6225 18.8689L8.52225 18.5H8.14H5C4.86739 18.5 4.74021 18.4473 4.64645 18.3536C4.55268 18.2598 4.5 18.1326 4.5 18V16.0007C4.50159 15.4852 4.66253 14.9827 4.96078 14.5622C5.25916 14.1415 5.68037 13.8233 6.16666 13.6514L6.5 13.5336V13.18L6.5 10.0005C6.5 10.0004 6.5 10.0004 6.5 10.0003C6.50137 8.70155 6.96228 7.44521 7.8011 6.45372C8.63998 5.46216 9.80269 4.79947 11.0833 4.58301L11.5 4.51258V4.09V3C11.5 2.86739 11.5527 2.74021 11.6464 2.64645C11.7402 2.55268 11.8674 2.5 12 2.5C12.1326 2.5 12.2598 2.55268 12.3536 2.64645C12.4473 2.74021 12.5 2.86739 12.5 3V4.09V4.51258L12.9167 4.58301C14.1973 4.79947 15.36 5.46216 16.1989 6.45372C17.0378 7.44527 17.4987 8.7017 17.5 10.0005V13.18ZM16 13.5H16.5V13V10C16.5 8.80653 16.0259 7.66193 15.182 6.81802C14.3381 5.97411 13.1935 5.5 12 5.5C10.8065 5.5 9.66193 5.97411 8.81802 6.81802C7.97411 7.66193 7.5 8.80653 7.5 10V13V13.5H8H16ZM11.997 20.5V20.5L12.003 20.5C12.4393 20.4974 12.8673 20.3806 13.2445 20.1613C13.6217 19.942 13.9349 19.6278 14.153 19.25L14.586 18.5H13.72H10.28H9.414L9.84698 19.25C10.0651 19.6278 10.3783 19.942 10.7555 20.1613C11.1327 20.3806 11.5607 20.4974 11.997 20.5ZM18 17.5H18.5V17V16C18.5 15.6022 18.342 15.2206 18.0607 14.9393C17.7794 14.658 17.3978 14.5 17 14.5H7C6.60217 14.5 6.22064 14.658 5.93934 14.9393C5.65804 15.2206 5.5 15.6022 5.5 16V17V17.5H6H18Z" fill="#2E2D38" stroke="#1D4D4F"/>
</svg>
