<svg width="22" height="18" viewBox="0 0 22 18" fill="none" xmlns="http://www.w3.org/2000/svg">
<path d="M11 0C16.392 0 20.878 3.88 21.819 9C20.879 14.12 16.392 18 11 18C5.60803 18 1.12203 14.12 0.18103 9C1.12103 3.88 5.60803 0 11 0ZM11 16C13.0395 15.9996 15.0184 15.3068 16.6129 14.0352C18.2074 12.7635 19.3229 10.9883 19.777 9C19.3213 7.0133 18.205 5.24 16.6107 3.97003C15.0163 2.70005 13.0383 2.00853 11 2.00853C8.96173 2.00853 6.98372 2.70005 5.38941 3.97003C3.79509 5.24 2.6788 7.0133 2.22303 9C2.67713 10.9883 3.7927 12.7635 5.38717 14.0352C6.98164 15.3068 8.96056 15.9996 11 16ZM11 13.5C9.80656 13.5 8.66196 13.0259 7.81805 12.182C6.97414 11.3381 6.50003 10.1935 6.50003 9C6.50003 7.80653 6.97414 6.66193 7.81805 5.81802C8.66196 4.97411 9.80656 4.5 11 4.5C12.1935 4.5 13.3381 4.97411 14.182 5.81802C15.0259 6.66193 15.5 7.80653 15.5 9C15.5 10.1935 15.0259 11.3381 14.182 12.182C13.3381 13.0259 12.1935 13.5 11 13.5ZM11 11.5C11.6631 11.5 12.299 11.2366 12.7678 10.7678C13.2366 10.2989 13.5 9.66304 13.5 9C13.5 8.33696 13.2366 7.70107 12.7678 7.23223C12.299 6.76339 11.6631 6.5 11 6.5C10.337 6.5 9.7011 6.76339 9.23226 7.23223C8.76342 7.70107 8.50003 8.33696 8.50003 9C8.50003 9.66304 8.76342 10.2989 9.23226 10.7678C9.7011 11.2366 10.337 11.5 11 11.5Z" fill="#6F8094"/>
</svg>
