<svg width="24" height="24" viewBox="0 0 24 24" fill="none" xmlns="http://www.w3.org/2000/svg">
<path d="M12.8334 6.24721C12.5867 6.41203 12.2967 6.5 12 6.5C11.6022 6.5 11.2206 6.34197 10.9393 6.06066C10.658 5.77936 10.5 5.39783 10.5 5C10.5 4.70333 10.588 4.41332 10.7528 4.16665C10.9176 3.91997 11.1519 3.72771 11.426 3.61418C11.7001 3.50065 12.0017 3.47095 12.2926 3.52882C12.5836 3.5867 12.8509 3.72956 13.0607 3.93934C13.2704 4.14912 13.4133 4.41639 13.4712 4.70737C13.5291 4.99834 13.4994 5.29994 13.3858 5.57403C13.2723 5.84811 13.08 6.08238 12.8334 6.24721ZM11.1666 17.7528C11.4133 17.588 11.7033 17.5 12 17.5C12.3978 17.5 12.7794 17.658 13.0607 17.9393C13.342 18.2206 13.5 18.6022 13.5 19C13.5 19.2967 13.412 19.5867 13.2472 19.8334C13.0824 20.08 12.8481 20.2723 12.574 20.3858C12.2999 20.4994 11.9983 20.5291 11.7074 20.4712C11.4164 20.4133 11.1491 20.2704 10.9393 20.0607C10.7296 19.8509 10.5867 19.5836 10.5288 19.2926C10.4709 19.0017 10.5007 18.7001 10.6142 18.426C10.7277 18.1519 10.92 17.9176 11.1666 17.7528ZM11.1666 10.7528C11.4133 10.588 11.7033 10.5 12 10.5C12.3978 10.5 12.7794 10.658 13.0607 10.9393C13.342 11.2206 13.5 11.6022 13.5 12C13.5 12.2967 13.412 12.5867 13.2472 12.8334C13.0824 13.08 12.8481 13.2723 12.574 13.3858C12.2999 13.4994 11.9983 13.5291 11.7074 13.4712C11.4164 13.4133 11.1491 13.2704 10.9393 13.0607C10.7296 12.8509 10.5867 12.5836 10.5288 12.2926C10.4709 12.0017 10.5007 11.7001 10.6142 11.426C10.7277 11.1519 10.92 10.9176 11.1666 10.7528Z" fill="#2E2D38" stroke="#1D4D4F"/>
</svg>
