<svg width="30" height="30" viewBox="0 0 30 30" fill="none" xmlns="http://www.w3.org/2000/svg">
<path d="M8.75 18.75H12.5C12.8315 18.75 13.1495 18.6183 13.3839 18.3839C13.6183 18.1495 13.75 17.8315 13.75 17.5C13.75 17.1685 13.6183 16.8505 13.3839 16.6161C13.1495 16.3817 12.8315 16.25 12.5 16.25H8.75C8.41848 16.25 8.10054 16.3817 7.86612 16.6161C7.6317 16.8505 7.5 17.1685 7.5 17.5C7.5 17.8315 7.6317 18.1495 7.86612 18.3839C8.10054 18.6183 8.41848 18.75 8.75 18.75ZM23.75 6.25H6.25C5.25544 6.25 4.30161 6.64509 3.59835 7.34835C2.89509 8.05161 2.5 9.00544 2.5 10V21.25C2.5 22.2446 2.89509 23.1984 3.59835 23.9017C4.30161 24.6049 5.25544 25 6.25 25H23.75C24.7446 25 25.6984 24.6049 26.4017 23.9017C27.1049 23.1984 27.5 22.2446 27.5 21.25V10C27.5 9.00544 27.1049 8.05161 26.4017 7.34835C25.6984 6.64509 24.7446 6.25 23.75 6.25ZM25 21.25C25 21.5815 24.8683 21.8995 24.6339 22.1339C24.3995 22.3683 24.0815 22.5 23.75 22.5H6.25C5.91848 22.5 5.60054 22.3683 5.36612 22.1339C5.1317 21.8995 5 21.5815 5 21.25V13.75H25V21.25ZM25 11.25H5V10C5 9.66848 5.1317 9.35054 5.36612 9.11612C5.60054 8.8817 5.91848 8.75 6.25 8.75H23.75C24.0815 8.75 24.3995 8.8817 24.6339 9.11612C24.8683 9.35054 25 9.66848 25 10V11.25Z" fill="#6F8094"/>
</svg>
