<svg width="30" height="30" viewBox="0 0 30 30" fill="none" xmlns="http://www.w3.org/2000/svg">
<path d="M7.46917 24.8466L5.62149 8.95993C5.49681 7.88796 4.58881 7.07944 3.50961 7.07944C3.04094 7.07944 2.73232 6.59092 2.93359 6.16768L3.63166 4.69978C3.90755 4.11963 4.49263 3.75 5.13504 3.75H23.0176C23.5556 3.75 24.0605 4.01 24.3729 4.44798L25.6918 6.29698C25.9256 6.62463 25.6913 7.07944 25.2889 7.07944C24.4752 7.07944 23.783 7.67256 23.6583 8.4766L21.1023 24.9597C20.8756 26.4216 19.617 27.5 18.1377 27.5H10.4491C8.92631 27.5 7.64509 26.3592 7.46917 24.8466Z" stroke="#6F8094" stroke-width="2.5"/>
<circle cx="14.375" cy="15.625" r="3.125" stroke="#6F8094" stroke-width="2.5"/>
</svg>
