<svg width="30" height="30" viewBox="0 0 30 30" fill="none" xmlns="http://www.w3.org/2000/svg">
<path d="M22.5002 5.59977C20.511 3.61064 17.8132 2.49316 15.0002 2.49316C12.1871 2.49316 9.48928 3.61064 7.50016 5.59977C5.51103 7.58889 4.39355 10.2867 4.39355 13.0998C4.39355 15.9128 5.51103 18.6106 7.50016 20.5998L14.0877 27.1998C14.2039 27.3169 14.3421 27.4099 14.4944 27.4734C14.6468 27.5368 14.8101 27.5695 14.9752 27.5695C15.1402 27.5695 15.3036 27.5368 15.4559 27.4734C15.6082 27.4099 15.7465 27.3169 15.8627 27.1998L22.5002 20.5373C24.481 18.5564 25.5938 15.8698 25.5938 13.0685C25.5938 10.2672 24.481 7.58061 22.5002 5.59977ZM20.7127 18.7498L15.0002 24.4873L9.28766 18.7498C8.15909 17.6202 7.39075 16.1813 7.07977 14.6151C6.7688 13.0489 6.92914 11.4257 7.54054 9.95062C8.15193 8.47553 9.18693 7.21483 10.5147 6.32786C11.8425 5.4409 13.4034 4.96749 15.0002 4.96749C16.5969 4.96749 18.1579 5.4409 19.4856 6.32786C20.8134 7.21483 21.8484 8.47553 22.4598 9.95062C23.0712 11.4257 23.2315 13.0489 22.9205 14.6151C22.6096 16.1813 21.8412 17.6202 20.7127 18.7498ZM11.2502 9.26227C10.241 10.2745 9.6744 11.6455 9.6744 13.0748C9.6744 14.5041 10.241 15.875 11.2502 16.8873C11.9999 17.6382 12.9546 18.1511 13.9947 18.3615C15.0348 18.5719 16.1138 18.4705 17.0965 18.07C18.0791 17.6694 18.9216 16.9876 19.5183 16.1101C20.1149 15.2325 20.4391 14.1984 20.4502 13.1373C20.4558 12.4288 20.3193 11.7263 20.0488 11.0715C19.7783 10.4167 19.3792 9.82271 18.8752 9.32477C18.3797 8.81799 17.789 8.41419 17.1369 8.1366C16.4849 7.85901 15.7843 7.71311 15.0757 7.7073C14.367 7.70149 13.6642 7.83589 13.0076 8.10275C12.3511 8.36961 11.7538 8.76368 11.2502 9.26227ZM17.1127 15.1123C16.639 15.5932 16.0129 15.8946 15.3416 15.9651C14.6702 16.0355 13.9952 15.8706 13.432 15.4984C12.8688 15.1263 12.4524 14.5701 12.2539 13.9249C12.0554 13.2797 12.0872 12.5856 12.3439 11.9612C12.6005 11.3369 13.066 10.821 13.6609 10.5019C14.2557 10.1828 14.943 10.0803 15.6051 10.2118C16.2672 10.3433 16.863 10.7007 17.2908 11.2229C17.7185 11.7451 17.9516 12.3997 17.9502 13.0748C17.932 13.8464 17.6083 14.5792 17.0502 15.1123H17.1127Z" fill="#6F8094"/>
</svg>
