<svg width="30" height="30" viewBox="0 0 30 30" fill="none" xmlns="http://www.w3.org/2000/svg">
<path d="M27.5 12.0876C27.421 11.8589 27.2774 11.6581 27.0866 11.5094C26.8958 11.3608 26.666 11.2707 26.425 11.2501L19.3125 10.2126L16.125 3.75006C16.0226 3.53872 15.8628 3.36049 15.6638 3.23578C15.4649 3.11107 15.2348 3.04492 15 3.04492C14.7652 3.04492 14.5351 3.11107 14.3361 3.23578C14.1371 3.36049 13.9773 3.53872 13.875 3.75006L10.6875 10.2001L3.57497 11.2501C3.34362 11.2829 3.12613 11.38 2.94716 11.5303C2.76819 11.6805 2.63492 11.8779 2.56247 12.1001C2.49615 12.3172 2.4902 12.5482 2.54526 12.7684C2.60031 12.9886 2.71429 13.1897 2.87497 13.3501L8.03747 18.3501L6.78747 25.4501C6.74285 25.6844 6.76621 25.9266 6.85481 26.1481C6.94341 26.3696 7.09354 26.5611 7.28747 26.7001C7.47649 26.8352 7.69944 26.915 7.93128 26.9304C8.16312 26.9459 8.39469 26.8964 8.59997 26.7876L15 23.4501L21.375 26.8001C21.5504 26.899 21.7485 26.9507 21.95 26.9501C22.2148 26.951 22.473 26.8678 22.6875 26.7126C22.8814 26.5736 23.0315 26.3821 23.1201 26.1606C23.2087 25.9391 23.2321 25.6969 23.1875 25.4626L21.9375 18.3626L27.1 13.3626C27.2804 13.2097 27.4138 13.0087 27.4846 12.783C27.5554 12.5573 27.5608 12.3162 27.5 12.0876ZM19.8125 17.0876C19.6659 17.2294 19.5562 17.4049 19.493 17.5988C19.4298 17.7927 19.4151 17.9991 19.45 18.2001L20.35 23.4376L15.65 20.9376C15.4691 20.8413 15.2674 20.7909 15.0625 20.7909C14.8576 20.7909 14.6558 20.8413 14.475 20.9376L9.77497 23.4376L10.675 18.2001C10.7099 17.9991 10.6951 17.7927 10.6319 17.5988C10.5687 17.4049 10.4591 17.2294 10.3125 17.0876L6.56247 13.3376L11.825 12.5751C12.0275 12.5469 12.22 12.4695 12.3856 12.3496C12.5512 12.2298 12.6849 12.0711 12.775 11.8876L15 7.12506L17.35 11.9001C17.44 12.0836 17.5737 12.2423 17.7393 12.3621C17.905 12.482 18.0975 12.5594 18.3 12.5876L23.5625 13.3501L19.8125 17.0876Z" fill="#6F8094"/>
</svg>
